<svg fill="currentColor" ria-hiddaen="true" style="position: absolute; width: 0; height: 0; overflow: hidden;" version="1.1" xmlns="http://www.w3.org/2000/svg" xmlns:xlink="http://www.w3.org/1999/xlink">
    
    <defs>

        <symbol id="send-logo" viewBox="0 0 24 24"> 
        
            <path d="M24 0L0 13.5L7.66994 16.3407L19.5 5.25002L10.5017 17.3896L10.509 17.3923L10.5 17.3896V24.0001L14.8013 18.982L20.2501 21.0001L24 0Z" fill="white"/>

        </symbol>


        <symbol id="phone-icon" viewBox="0 0 18 18"> 
        
            <path d="M13.996 11.1226L12.1579 10.9127C11.7164 10.8621 11.2822 11.0141 10.9711 11.3252L9.63948 12.6568C7.59147 11.6147 5.91254 9.94301 4.87044 7.88775L6.20925 6.54894C6.52043 6.23775 6.6724 5.80355 6.62174 5.3621L6.41188 3.53842C6.32504 2.8075 5.70991 2.2575 4.97176 2.2575H3.71979C2.90203 2.2575 2.22178 2.93776 2.27243 3.75552C2.65598 9.93577 7.59871 14.8713 13.7717 15.2548C14.5894 15.3055 15.2697 14.6252 15.2697 13.8075V12.5555C15.2769 11.8246 14.7269 11.2095 13.996 11.1226Z" fill="currentColor"/>

        </symbol>

        <symbol id="email-icon" viewBox="0 0 18 18"> 
         
            <path d="M15 3H3C2.175 3 1.5075 3.675 1.5075 4.5L1.5 13.5C1.5 14.325 2.175 15 3 15H15C15.825 15 16.5 14.325 16.5 13.5V4.5C16.5 3.675 15.825 3 15 3ZM14.7 6.1875L9.3975 9.5025C9.1575 9.6525 8.8425 9.6525 8.6025 9.5025L3.3 6.1875C3.1125 6.0675 3 5.865 3 5.6475C3 5.145 3.5475 4.845 3.975 5.1075L9 8.25L14.025 5.1075C14.4525 4.845 15 5.145 15 5.6475C15 5.865 14.8875 6.0675 14.7 6.1875Z" fill="currentColor"/>


        </symbol>

        



        <symbol id="person-icon" viewBox="0 0 18 18"> 
            
            <path d="M9 9C10.6575 9 12 7.6575 12 6C12 4.3425 10.6575 3 9 3C7.3425 3 6 4.3425 6 6C6 7.6575 7.3425 9 9 9ZM9 10.5C6.9975 10.5 3 11.505 3 13.5V14.25C3 14.6625 3.3375 15 3.75 15H14.25C14.6625 15 15 14.6625 15 14.25V13.5C15 11.505 11.0025 10.5 9 10.5Z" fill="currentColor"/>

        </symbol>

       
        <symbol id="instagram-logo" viewBox="0 0 20 20"> 

            <path d="M19.9804 5.88005C19.9336 4.81738 19.7617 4.0868 19.5156 3.45374C19.2616 2.78176 18.8709 2.18014 18.359 1.68002C17.8589 1.1721 17.2533 0.777435 16.5891 0.527447C15.9524 0.281274 15.2256 0.109427 14.163 0.0625732C13.0924 0.0117516 12.7525 0 10.0371 0C7.32173 0 6.98185 0.0117516 5.91521 0.0586052C4.85253 0.105459 4.12195 0.277459 3.48904 0.523479C2.81692 0.777435 2.2153 1.16814 1.71517 1.68002C1.20726 2.18014 0.812743 2.78573 0.562603 3.44992C0.31643 4.0868 0.144583 4.81341 0.0977294 5.87609C0.0469078 6.9467 0.0351562 7.28658 0.0351562 10.002C0.0351562 12.7173 0.0469078 13.0572 0.0937614 14.1239C0.140615 15.1865 0.312615 15.9171 0.558787 16.5502C0.812743 17.2221 1.20726 17.8238 1.71517 18.3239C2.2153 18.8318 2.82088 19.2265 3.48508 19.4765C4.12195 19.7226 4.84856 19.8945 5.91139 19.9413C6.97788 19.9883 7.31791 19.9999 10.0333 19.9999C12.7487 19.9999 13.0885 19.9883 14.1552 19.9413C15.2179 19.8945 15.9484 19.7226 16.5813 19.4765C17.9254 18.9568 18.9881 17.8941 19.5078 16.5502C19.7538 15.9133 19.9258 15.1865 19.9727 14.1239C20.0195 13.0572 20.0313 12.7173 20.0313 10.002C20.0313 7.28658 20.0273 6.9467 19.9804 5.88005ZM18.1794 14.0457C18.1364 15.0225 17.9723 15.5499 17.8356 15.9015C17.4995 16.7728 16.808 17.4643 15.9367 17.8004C15.5851 17.9372 15.0538 18.1012 14.0809 18.1441C13.026 18.1911 12.7096 18.2027 10.0411 18.2027C7.37255 18.2027 7.05221 18.1911 6.00113 18.1441C5.02438 18.1012 4.49693 17.9372 4.1453 17.8004C3.71171 17.6402 3.31704 17.3862 2.9967 17.0541C2.6646 16.7298 2.41065 16.3391 2.2504 15.9055C2.11365 15.5539 1.94959 15.0225 1.90671 14.0497C1.8597 12.9948 1.8481 12.6783 1.8481 10.0097C1.8481 7.34122 1.8597 7.02087 1.90671 5.96995C1.94959 4.99319 2.11365 4.46575 2.2504 4.11412C2.41065 3.68038 2.6646 3.28586 3.00067 2.96536C3.32483 2.63327 3.71553 2.37931 4.14927 2.21921C4.5009 2.08247 5.03231 1.9184 6.0051 1.87537C7.05999 1.82851 7.37652 1.81676 10.0449 1.81676C12.7174 1.81676 13.0337 1.82851 14.0848 1.87537C15.0616 1.9184 15.589 2.08247 15.9407 2.21921C16.3742 2.37931 16.7689 2.63327 17.0893 2.96536C17.4213 3.28967 17.6753 3.68038 17.8356 4.11412C17.9723 4.46575 18.1364 4.99701 18.1794 5.96995C18.2263 7.02484 18.238 7.34122 18.238 10.0097C18.238 12.6783 18.2263 12.9908 18.1794 14.0457Z" fill="currentColor"/>
            <path d="M10.0371 4.8642C7.20074 4.8642 4.89941 7.16537 4.89941 10.0019C4.89941 12.8385 7.20074 15.1396 10.0371 15.1396C12.8737 15.1396 15.1749 12.8385 15.1749 10.0019C15.1749 7.16537 12.8737 4.8642 10.0371 4.8642ZM10.0371 13.3346C8.19702 13.3346 6.70442 11.8422 6.70442 10.0019C6.70442 8.16165 8.19702 6.66921 10.0371 6.66921C11.8774 6.66921 13.3698 8.16165 13.3698 10.0019C13.3698 11.8422 11.8774 13.3346 10.0371 13.3346Z" fill="currentColor"/>
            <path d="M16.5775 4.6611C16.5775 5.32346 16.0404 5.86052 15.3779 5.86052C14.7155 5.86052 14.1785 5.32346 14.1785 4.6611C14.1785 3.99858 14.7155 3.46167 15.3779 3.46167C16.0404 3.46167 16.5775 3.99858 16.5775 4.6611Z"  fill="currentColor"/>

        </symbol>
           
        <symbol id="twitter-logo" viewBox="0 0 20 20"> 

           <path d="M20 3.79875C19.2563 4.125 18.4637 4.34125 17.6375 4.44625C18.4875 3.93875 19.1363 3.14125 19.4412 2.18C18.6488 2.6525 17.7738 2.98625 16.8412 3.1725C16.0887 2.37125 15.0162 1.875 13.8462 1.875C11.5763 1.875 9.74875 3.7175 9.74875 5.97625C9.74875 6.30125 9.77625 6.61375 9.84375 6.91125C6.435 6.745 3.41875 5.11125 1.3925 2.6225C1.03875 3.23625 0.83125 3.93875 0.83125 4.695C0.83125 6.115 1.5625 7.37375 2.6525 8.1025C1.99375 8.09 1.3475 7.89875 0.8 7.5975C0.8 7.61 0.8 7.62625 0.8 7.6425C0.8 9.635 2.22125 11.29 4.085 11.6712C3.75125 11.7625 3.3875 11.8062 3.01 11.8062C2.7475 11.8062 2.4825 11.7913 2.23375 11.7362C2.765 13.36 4.2725 14.5538 6.065 14.5925C4.67 15.6838 2.89875 16.3412 0.98125 16.3412C0.645 16.3412 0.3225 16.3263 0 16.285C1.81625 17.4563 3.96875 18.125 6.29 18.125C13.835 18.125 17.96 11.875 17.96 6.4575C17.96 6.27625 17.9538 6.10125 17.945 5.9275C18.7588 5.35 19.4425 4.62875 20 3.79875Z" fill="currentColor"/>
             
        </symbol>

        <symbol id="facebook-logo" viewBox="0 0 20 20"> 

            <path d="M13.3308 3.32083H15.1567V0.140833C14.8417 0.0975 13.7583 0 12.4967 0C9.86416 0 8.06082 1.65583 8.06082 4.69917V7.5H5.15582V11.055H8.06082V20H11.6225V11.0558H14.41L14.8525 7.50083H11.6217V5.05167C11.6225 4.02417 11.8992 3.32083 13.3308 3.32083Z" fill="currentColor"/>

        </symbol>

        <symbol id="in-logo" viewBox="0 0 20 20"> 

            <path d="M19.9951 20V19.9992H20.0001V12.6642C20.0001 9.07587 19.2276 6.31171 15.0326 6.31171C13.0159 6.31171 11.6626 7.41837 11.1101 8.46754H11.0517V6.64671H7.07422V19.9992H11.2159V13.3875C11.2159 11.6467 11.5459 9.96337 13.7017 9.96337C15.8259 9.96337 15.8576 11.95 15.8576 13.4992V20H19.9951Z" fill="currentColor"/>
            <path d="M0.329956 6.64746H4.47662V20H0.329956V6.64746Z" fill="currentColor"/>
            <path d="M2.40167 0C1.07583 0 0 1.07583 0 2.40167C0 3.7275 1.07583 4.82583 2.40167 4.82583C3.7275 4.82583 4.80333 3.7275 4.80333 2.40167C4.8025 1.07583 3.72667 0 2.40167 0V0Z" fill="currentColor"/>

        </symbol>
       
        <symbol id="ya-co-customer" viewBox="0 0 170 92"> 

            <rect x="0.5" y="0.5" width="169" height="91" rx="3.5" stroke="currentColor"/>
            <path fill-rule="evenodd" clip-rule="evenodd" d="M70 23L77.0078 29.6341L64 29.6265V61.8137H98V49.507L105 56.1338V23H70ZM97.6924 48.7283L77.8226 29.918H97.6924V48.7283ZM91.5231 57.1055H69.3801V35.4579H70.9453V55.6397H91.5231V57.1055ZM74.6089 66.0991L73.791 67.7837L72.9731 66.0991H72.2871L73.481 68.3452V69.6538H74.1011V68.3452L75.2925 66.0991H74.6089ZM75.6367 69.6538L75.9248 68.8262H77.3018L77.5923 69.6538H78.2368L76.8916 66.0991H76.3374L74.9946 69.6538H75.6367ZM76.6133 66.8535L77.1284 68.3281H76.0981L76.6133 66.8535ZM79.8701 68.2427C79.7806 68.3794 79.7358 68.5299 79.7358 68.6943C79.7358 68.9938 79.8408 69.2371 80.0508 69.4243C80.2624 69.6099 80.5439 69.7026 80.8955 69.7026C81.2471 69.7026 81.5498 69.6074 81.8037 69.417L82.0039 69.6538H82.6924L82.1699 69.0361C82.375 68.7562 82.4775 68.3973 82.4775 67.9595H81.9624C81.9624 68.1987 81.9128 68.416 81.8135 68.6113L81.1274 67.8008L81.3691 67.625C81.54 67.5013 81.6629 67.3776 81.7378 67.2539C81.8127 67.1286 81.8501 66.9919 81.8501 66.8438C81.8501 66.6191 81.7671 66.4312 81.6011 66.2798C81.4367 66.1268 81.2251 66.0503 80.9663 66.0503C80.6798 66.0503 80.452 66.1317 80.2827 66.2944C80.1134 66.4556 80.0288 66.6753 80.0288 66.9536C80.0288 67.0675 80.0557 67.1855 80.1094 67.3076C80.1647 67.4297 80.2616 67.5778 80.3999 67.752C80.1362 67.9408 79.9596 68.1043 79.8701 68.2427ZM81.4741 69.0288C81.3 69.1623 81.1128 69.229 80.9126 69.229C80.7352 69.229 80.5936 69.1777 80.4878 69.0752C80.382 68.9727 80.3291 68.8392 80.3291 68.6748C80.3291 68.4844 80.4268 68.3151 80.6221 68.167L80.6978 68.1133L81.4741 69.0288ZM80.8369 67.4541C80.6693 67.2474 80.5854 67.0757 80.5854 66.939C80.5854 66.8201 80.6196 66.7217 80.688 66.6436C80.7563 66.5654 80.8483 66.5264 80.9639 66.5264C81.0713 66.5264 81.16 66.5597 81.23 66.6265C81.3 66.6916 81.335 66.7705 81.335 66.8633C81.335 67.0033 81.2845 67.118 81.1836 67.2075L81.1079 67.2686L80.8369 67.4541ZM86.623 69.3853C86.8672 69.172 87.0072 68.8758 87.043 68.4966H86.4277C86.3952 68.7505 86.3179 68.932 86.1958 69.041C86.0737 69.1501 85.8914 69.2046 85.6489 69.2046C85.3836 69.2046 85.1818 69.1037 85.0435 68.9019C84.9067 68.7 84.8384 68.4071 84.8384 68.0229V67.708C84.8416 67.3288 84.9149 67.0415 85.0581 66.8462C85.203 66.6493 85.4097 66.5508 85.6782 66.5508C85.9093 66.5508 86.0843 66.6077 86.2031 66.7217C86.3236 66.834 86.3984 67.0179 86.4277 67.2734H87.043C87.0039 66.8844 86.8647 66.5833 86.6255 66.3701C86.3862 66.1569 86.0705 66.0503 85.6782 66.0503C85.3869 66.0503 85.1297 66.1195 84.9067 66.2578C84.6854 66.3962 84.5153 66.5931 84.3965 66.8486C84.2777 67.1042 84.2183 67.3996 84.2183 67.7349V68.0669C84.2231 68.394 84.2842 68.6813 84.4014 68.9287C84.5186 69.1761 84.6846 69.3674 84.8994 69.5024C85.1159 69.6359 85.3657 69.7026 85.6489 69.7026C86.0542 69.7026 86.3789 69.5968 86.623 69.3853ZM90.2534 68.8872C90.3739 68.6235 90.4341 68.3175 90.4341 67.9692V67.7715C90.4325 67.4248 90.3706 67.1213 90.2485 66.8608C90.1265 66.5988 89.9531 66.3986 89.7285 66.2603C89.5055 66.1203 89.2492 66.0503 88.9595 66.0503C88.6698 66.0503 88.4126 66.1211 88.188 66.2627C87.965 66.4027 87.7917 66.6053 87.668 66.8706C87.5459 67.1359 87.4849 67.4419 87.4849 67.7886V67.9888C87.4865 68.3289 87.5483 68.6292 87.6704 68.8896C87.7941 69.1501 87.9683 69.3511 88.1929 69.4927C88.4191 69.6326 88.6763 69.7026 88.9644 69.7026C89.2557 69.7026 89.5129 69.6326 89.7358 69.4927C89.9604 69.3511 90.133 69.1493 90.2534 68.8872ZM89.5918 66.8779C89.7415 67.0879 89.8164 67.3898 89.8164 67.7837V67.9692C89.8164 68.3696 89.7423 68.674 89.5942 68.8823C89.4478 69.0907 89.2378 69.1948 88.9644 69.1948C88.6942 69.1948 88.4826 69.0882 88.3296 68.875C88.1782 68.6618 88.1025 68.3599 88.1025 67.9692V67.7642C88.1058 67.3817 88.1823 67.0863 88.332 66.8779C88.4834 66.668 88.6925 66.563 88.9595 66.563C89.2329 66.563 89.4437 66.668 89.5918 66.8779Z" fill="currentColor"/>
    
        </symbol>

        <symbol id="tagline-customer" viewBox="0 0 170 92"> 
         
            <rect x="0.5" y="0.5" width="169" height="91" rx="3.5" stroke="currentColor"/>
            <path fill-rule="evenodd" clip-rule="evenodd" d="M82.1136 21.9345H81.977C81.7671 21.9218 81.5571 21.9167 81.3471 21.9116H81.3471H81.3269H80.8918C80.4946 21.9116 80.0898 21.9218 79.6876 21.9421C79.6573 21.9399 79.6269 21.9399 79.5966 21.9421C75.9522 22.1486 72.3817 23.0595 69.0805 24.6249L68.6479 24.8334V46.9746L69.6598 46.6313C70.5477 46.3261 71.4938 46.0515 72.4728 45.7972C75.1193 45.1178 77.8367 44.7567 80.568 44.7216V47.6306C80.2062 47.6332 79.8546 47.6434 79.503 47.6612H79.4195C77.3175 47.7765 75.2317 48.0967 73.1913 48.6173C70.6072 49.2643 68.1143 50.2357 65.7716 51.5086V23.1119C68.2047 21.6928 70.8253 20.6269 73.5556 19.946C75.9527 19.3271 78.4169 19.0093 80.8918 19H81.3193C81.8303 19.0127 82.3287 19.0356 82.7967 19.0712C84.0297 19.1578 85.2528 19.3526 86.4521 19.6535V22.5168C85.2874 22.2455 84.1032 22.067 82.9105 21.9828C82.8863 21.9808 82.8621 21.9787 82.8379 21.9767C82.5911 21.9556 82.344 21.9345 82.1136 21.9345ZM87.1528 24.8614C87.7877 24.9097 88.4455 24.9326 89.1108 24.9326C91.7125 24.9231 94.3031 24.5908 96.8239 23.9434C99.4068 23.294 101.899 22.3218 104.241 21.0496V48.9402C101.807 50.3585 99.1853 51.4243 96.4546 52.1061C94.0571 52.7227 91.5931 53.0395 89.1184 53.0496C87.2433 53.0647 85.3737 52.8443 83.553 52.3935V24.3223C83.983 24.4215 84.4257 24.513 84.876 24.5893C85.6147 24.7139 86.3939 24.8054 87.1528 24.8614ZM101.347 25.0775L100.335 25.4183C99.4042 25.7311 98.4657 26.0108 97.5221 26.26C94.7749 26.966 91.9514 27.3281 89.1158 27.3382C88.4556 27.3382 87.8485 27.3204 87.2616 27.2822L86.4546 27.2288V47.3178V50.0057L87.1477 50.0667C87.7903 50.1227 88.4531 50.1506 89.1209 50.1506C91.3544 50.1412 93.5781 49.8533 95.7412 49.2937C97.5223 48.8469 99.2552 48.2243 100.914 47.4348L101.347 47.2263V25.0775Z" fill="currentColor"/>
            <path d="M67.7371 61.2124C67.5917 61.0615 67.4163 60.943 67.2224 60.8646C67.0284 60.7862 66.8203 60.7496 66.6114 60.7572C66.3888 60.7542 66.1678 60.7957 65.9613 60.8793C65.7719 60.9547 65.5998 61.068 65.4553 61.2124C65.3125 61.3572 65.2013 61.5304 65.129 61.721C65.0497 61.9207 65.0101 62.1341 65.0126 62.3491V66.1431C65.0036 66.4104 65.0546 66.6764 65.1619 66.9212C65.2514 67.1156 65.3807 67.2889 65.5413 67.4298C65.693 67.5575 65.871 67.6495 66.0625 67.6994C66.2469 67.7512 66.4376 67.7777 66.6291 67.7782C66.8404 67.7803 67.0495 67.7351 67.2413 67.646C67.4309 67.563 67.6028 67.4438 67.7473 67.295C67.8881 67.1476 68.0005 66.9752 68.0786 66.7864C68.1597 66.5951 68.201 66.3892 68.2001 66.1812V65.7566H67.2084V66.0948C67.2114 66.2103 67.1916 66.3252 67.1502 66.433C67.1179 66.5137 67.0688 66.5866 67.006 66.6466C66.9446 66.6962 66.8742 66.7334 66.7986 66.7559C66.7316 66.7782 66.6617 66.7902 66.5912 66.7915C66.5026 66.8018 66.413 66.7885 66.3312 66.7527C66.2495 66.717 66.1786 66.6602 66.1257 66.5881C66.0322 66.4356 65.9864 66.2585 65.9942 66.0795V62.5423C65.988 62.3462 66.0297 62.1515 66.1156 61.9753C66.1671 61.8952 66.2399 61.8313 66.3258 61.7908C66.4117 61.7503 66.5071 61.7349 66.6013 61.7464C66.6868 61.7434 66.7717 61.7612 66.8488 61.7984C66.9259 61.8356 66.9929 61.8911 67.044 61.96C67.155 62.1057 67.213 62.2852 67.2084 62.4686V62.7966H68.19V62.4101C68.1919 62.1831 68.1507 61.9578 68.0685 61.7464C67.9953 61.5476 67.8825 61.3659 67.7371 61.2124Z" fill="currentColor"/>
            <path d="M73.6289 61.1691C73.3127 60.9021 72.9136 60.7546 72.5007 60.7521C72.2987 60.7529 72.0984 60.7891 71.9087 60.8589C71.7161 60.9279 71.5384 61.0332 71.3851 61.1691C71.2208 61.3168 71.0897 61.498 71.0005 61.7006C70.9006 61.9323 70.8515 62.183 70.8563 62.4355V66.0744C70.8495 66.3304 70.8987 66.5847 71.0005 66.8195C71.0903 67.0151 71.2215 67.1887 71.3851 67.328C71.5367 67.4688 71.7147 67.5777 71.9087 67.6485C72.0984 67.7183 72.2987 67.7544 72.5007 67.7553C72.7027 67.7549 72.9031 67.7187 73.0926 67.6485C73.29 67.5767 73.4719 67.468 73.6289 67.328C73.7871 67.1861 73.9145 67.013 74.0033 66.8195C74.1051 66.5847 74.1544 66.3304 74.1475 66.0744V62.4355C74.1524 62.183 74.1032 61.9323 74.0033 61.7006C73.9151 61.5001 73.7878 61.3194 73.6289 61.1691ZM73.166 66.0744C73.1743 66.1714 73.1609 66.269 73.1268 66.3601C73.0926 66.4512 73.0386 66.5334 72.9687 66.6008C72.8377 66.7106 72.6725 66.7708 72.5019 66.7708C72.3313 66.7708 72.1662 66.7106 72.0352 66.6008C71.9652 66.5334 71.9112 66.4512 71.8771 66.3601C71.8429 66.269 71.8295 66.1714 71.8379 66.0744V62.4355C71.8295 62.3385 71.8429 62.2409 71.8771 62.1498C71.9112 62.0587 71.9652 61.9764 72.0352 61.9091C72.1662 61.7993 72.3313 61.7391 72.5019 61.7391C72.6725 61.7391 72.8377 61.7993 72.9687 61.9091C73.0386 61.9764 73.0926 62.0587 73.1268 62.1498C73.1609 62.2409 73.1743 62.3385 73.166 62.4355V66.0744Z" fill="currentColor"/>
            <path d="M81.3673 67.6994V60.8107H80.4136L79.1614 64.4572H79.1437L77.8813 60.8107H76.9377V67.6994H77.9218V63.5087H77.9395L78.9033 66.4712H79.3941L80.3655 63.5087H80.3832V67.6994H81.3673Z" fill="currentColor"/>
            <path d="M86.9581 61.2937C86.8065 61.1237 86.6153 60.9943 86.4015 60.9173C86.1712 60.8424 85.9302 60.8063 85.6881 60.8105H84.226V67.6993H85.2075V65.0089H85.7134C86.0197 65.0228 86.3244 64.958 86.5988 64.8207C86.822 64.6968 87.0081 64.515 87.1377 64.2943C87.2512 64.1111 87.3277 63.9071 87.3628 63.6942C87.4014 63.435 87.4192 63.173 87.4159 62.911C87.4255 62.5802 87.3932 62.2495 87.3198 61.9269C87.2543 61.6885 87.1299 61.4706 86.9581 61.2937ZM86.4521 63.3941C86.4479 63.5188 86.4168 63.6412 86.361 63.7527C86.3049 63.8586 86.2162 63.9434 86.1081 63.9942C85.9627 64.0593 85.8041 64.0889 85.6451 64.0807H85.1974V61.7387H85.7033C85.8557 61.7312 86.0075 61.7609 86.146 61.8251C86.2475 61.8834 86.3281 61.9724 86.3762 62.0794C86.4299 62.2004 86.4591 62.331 86.4622 62.4634C86.4622 62.6084 86.4622 62.7609 86.4622 62.9211C86.4622 63.0813 86.4723 63.2466 86.4622 63.3941H86.4521Z" fill="currentColor"/>
            <path d="M91.6077 60.8107H90.8032L89.2854 67.6994H90.2669L90.5553 66.2194H91.8935L92.1819 67.6994H93.1635L91.6077 60.8107ZM90.702 65.2811L91.1852 62.784H91.2029L91.6836 65.2811H90.702Z" fill="currentColor"/>
            <path d="M97.9497 64.9607H97.932L96.4496 60.8107H95.506V67.6994H96.4875V63.557H96.5078L98.0079 67.6994H98.9312V60.8107H97.9497V64.9607Z" fill="currentColor"/>
            <path d="M103.948 60.8107L103.158 63.5494H103.138L102.349 60.8107H101.309L102.657 64.7878V67.6994H103.639V64.7878L104.987 60.8107H103.948Z" fill="currentColor"/>
            <path d="M65 69.6445H65.4731V70.9719H65.7943V69.6445H66.2649V69.3724H65V69.6445Z" fill="currentColor"/>
            <path d="M68.9767 69.3724L68.3569 70.9719H68.6984L68.83 70.6083H69.4675L69.6041 70.9719H69.9532L69.3182 69.3724H68.9767ZM68.9261 70.3387L69.1437 69.7462L69.3612 70.3387H68.9261Z" fill="currentColor"/>
            <path d="M72.9079 70.3821H73.2773V70.5881C73.1694 70.6746 73.0358 70.722 72.8978 70.7229C72.8333 70.7265 72.7689 70.7145 72.7099 70.688C72.6509 70.6614 72.5991 70.6211 72.5588 70.5703C72.474 70.4485 72.4322 70.3017 72.4399 70.1533C72.4399 69.7973 72.5942 69.6193 72.9003 69.6193C72.9809 69.6112 73.0617 69.6325 73.128 69.6791C73.1944 69.7257 73.2419 69.7947 73.2621 69.8735L73.5783 69.8125C73.51 69.4997 73.2849 69.3421 72.9003 69.3421C72.6947 69.3366 72.4947 69.4103 72.3413 69.5481C72.2607 69.6276 72.1983 69.7239 72.1586 69.8302C72.1188 69.9365 72.1026 70.0502 72.1111 70.1634C72.1017 70.3823 72.1749 70.5966 72.316 70.7636C72.3943 70.8444 72.4892 70.9071 72.594 70.9475C72.6988 70.9879 72.8111 71.0049 72.9231 70.9975C73.1734 71.0045 73.4165 70.9133 73.6011 70.7432V70.1126H72.9079V70.3821Z" fill="currentColor"/>
            <path d="M76.9226 69.3724H76.5988V70.9719H77.7194V70.6998H76.9226V69.3724Z" fill="currentColor"/>
            <path d="M80.3175 69.3724H79.9937V70.9719H80.3175V69.3724Z" fill="currentColor"/>
            <path d="M83.6365 70.4405L82.9813 69.3724H82.6676V70.9719H82.9686V69.9268L83.6112 70.9719H83.9325V69.3724H83.6365V70.4405Z" fill="currentColor"/>
            <path d="M86.6368 70.2675H87.4337V69.9954H86.6368V69.6445H87.4944V69.3724H86.313V70.9719H87.5273V70.6998H86.6368V70.2675Z" fill="currentColor"/>
            <path d="M93.9122 70.0031H93.2823V69.3724H92.9611V70.9719H93.2823V70.2726H93.9122V70.9719H94.2335V69.3724H93.9122V70.0031Z" fill="currentColor"/>
            <path d="M96.9302 70.2675H97.7296V69.9954H96.9302V69.6445H97.7903V69.3724H96.6089V70.9719H97.8206V70.6998H96.9302V70.2675Z" fill="currentColor"/>
            <path d="M101.023 70.2676C101.302 70.2244 101.443 70.0769 101.443 69.8226C101.451 69.7546 101.441 69.6856 101.413 69.623C101.386 69.5603 101.342 69.5063 101.286 69.4666C101.141 69.3938 100.98 69.3614 100.818 69.3725H100.14V70.972H100.462V70.3032H100.525C100.593 70.299 100.662 70.3112 100.725 70.3388C100.772 70.3678 100.811 70.4079 100.839 70.4558L101.188 70.9644H101.572L101.377 70.6516C101.291 70.4972 101.17 70.3656 101.023 70.2676ZM100.699 70.0464H100.462V69.6446H100.715C100.825 69.6357 100.936 69.6486 101.041 69.6827C101.064 69.7034 101.083 69.7291 101.095 69.7579C101.107 69.7867 101.113 69.8179 101.111 69.8492C101.11 69.8804 101.101 69.911 101.087 69.9385C101.072 69.966 101.051 69.9899 101.026 70.0082C100.92 70.0406 100.81 70.0535 100.699 70.0464Z" fill="currentColor"/>
            <path d="M104.11 70.2675H104.906V69.9954H104.11V69.6445H104.97V69.3724H103.786V70.9719H105V70.6998H104.11V70.2675Z" fill="currentColor"/>
           

        </symbol>

        <symbol id="company-customer" viewBox="0 0 170 92"> 

            <rect x="0.5" y="0.5" width="169" height="91" rx="3.5" stroke="currentColor"/>
            <path d="M68.4063 65.1014C68.4222 65.1018 68.4379 65.1049 68.4524 65.1106C68.4669 65.1163 68.4799 65.1245 68.4908 65.1346L68.7089 65.3431C68.5396 65.5118 68.3304 65.6468 68.0955 65.7388C67.8204 65.8391 67.5239 65.8875 67.2257 65.8809C66.9455 65.8859 66.6671 65.8408 66.4078 65.7482C66.1739 65.6632 65.9638 65.5356 65.7916 65.3739C65.6159 65.2062 65.4805 65.0096 65.3935 64.7958C65.2982 64.5574 65.2512 64.3065 65.2545 64.0542C65.2506 63.8003 65.3015 63.548 65.4044 63.3103C65.4997 63.0951 65.6433 62.8986 65.827 62.7322C66.0132 62.5691 66.2359 62.4408 66.4814 62.3555C66.7499 62.265 67.0359 62.22 67.3239 62.2228C67.5914 62.2172 67.8575 62.2582 68.1064 62.3436C68.3223 62.425 68.5206 62.538 68.6926 62.6777L68.5099 62.9004C68.4973 62.9161 68.4816 62.9297 68.4635 62.9407C68.442 62.9535 68.4159 62.9594 68.3899 62.9573C68.3616 62.9556 68.3343 62.9474 68.3109 62.9336L68.2127 62.8743L68.0764 62.7985C68.0175 62.7704 67.9565 62.7458 67.8937 62.7251C67.8128 62.6999 67.7299 62.6801 67.6456 62.6659C67.5386 62.6487 67.4299 62.6408 67.3211 62.6422C67.1138 62.6399 66.908 62.6737 66.7159 62.7417C66.5367 62.8046 66.375 62.8999 66.2415 63.0212C66.1055 63.1503 66.0007 63.3018 65.9334 63.4667C65.8566 63.6553 65.8187 63.8542 65.8216 64.0542C65.8183 64.2574 65.8561 64.4595 65.9334 64.6513C65.9999 64.8147 66.1027 64.9653 66.236 65.0943C66.3609 65.2146 66.5157 65.3086 66.6886 65.3692C66.8666 65.4333 67.0576 65.4655 67.2503 65.4639C67.3615 65.4654 67.4728 65.4591 67.5829 65.445C67.7627 65.4259 67.9351 65.3716 68.0873 65.2862C68.1636 65.2425 68.2356 65.1934 68.3027 65.1393C68.3307 65.1161 68.3676 65.1026 68.4063 65.1014Z" fill="currentColor"/>
            <path d="M74.7044 64.0538C74.7078 64.3052 74.6579 64.5549 74.5571 64.7906C74.4683 65.0043 74.3283 65.1993 74.1465 65.3626C73.9646 65.526 73.745 65.654 73.502 65.7382C72.9682 65.9151 72.3781 65.9151 71.8443 65.7382C71.603 65.6527 71.3848 65.5244 71.2036 65.3615C71.0219 65.1952 70.8809 64.9986 70.7892 64.7835C70.5928 64.3063 70.5928 63.7847 70.7892 63.3076C70.8822 63.0923 71.023 62.8951 71.2036 62.7271C71.3863 62.5694 71.6044 62.446 71.8443 62.3647C72.3775 62.1846 72.9689 62.1846 73.502 62.3647C73.7442 62.4502 73.9633 62.5784 74.1455 62.7414C74.325 62.906 74.4649 63.1001 74.5571 63.3123C74.6582 63.5495 74.7081 63.8009 74.7044 64.0538ZM74.1318 64.0538C74.1361 63.8527 74.1011 63.6525 74.0282 63.4615C73.9671 63.298 73.8678 63.1472 73.7365 63.0185C73.6087 62.8968 73.4513 62.8013 73.2757 62.739C72.8879 62.6095 72.4585 62.6095 72.0706 62.739C71.8951 62.8013 71.7377 62.8968 71.6099 63.0185C71.4767 63.1464 71.3764 63.2974 71.3154 63.4615C71.1767 63.8472 71.1767 64.2604 71.3154 64.6461C71.377 64.81 71.4773 64.9609 71.6099 65.0891C71.7379 65.2101 71.8953 65.3048 72.0706 65.3663C72.4592 65.4925 72.8872 65.4925 73.2757 65.3663C73.4511 65.3048 73.6085 65.2101 73.7365 65.0891C73.8672 64.9601 73.9665 64.8094 74.0282 64.6461C74.1014 64.4552 74.1364 64.2549 74.1318 64.0538Z" fill="currentColor"/>
            <path d="M79.0013 64.6747L79.0586 64.8074C79.0804 64.76 79.0995 64.7173 79.1213 64.6747C79.1421 64.6302 79.1657 64.5867 79.1922 64.5444L80.5854 62.3438C80.6127 62.3059 80.6372 62.2823 80.6645 62.2751C80.7015 62.2653 80.7403 62.2613 80.779 62.2633H81.1907V65.8425H80.7026V63.2108C80.7026 63.1776 80.7026 63.1397 80.7026 63.0995C80.7 63.0585 80.7 63.0173 80.7026 62.9763L79.3012 65.2077C79.2834 65.2411 79.255 65.2694 79.2192 65.2891C79.1834 65.3089 79.1418 65.3192 79.0995 65.319H79.0204C78.9779 65.3195 78.9362 65.3093 78.9004 65.2895C78.8646 65.2697 78.8362 65.2413 78.8186 65.2077L77.3763 62.9621C77.3763 63.0047 77.3763 63.0474 77.3763 63.09C77.3763 63.1326 77.3763 63.1705 77.3763 63.2037V65.8354H76.9047V62.2633H77.3164C77.355 62.2613 77.3938 62.2653 77.4309 62.2751C77.4647 62.2897 77.4916 62.314 77.5072 62.3438L78.9304 64.5468C78.9584 64.5875 78.9821 64.6303 79.0013 64.6747Z" fill="currentColor"/>
            <path d="M84.2443 64.4969V65.8376H83.699V62.2632H84.915C85.1446 62.2594 85.3735 62.2857 85.5939 62.3413C85.7704 62.3848 85.9341 62.4607 86.0738 62.564C86.1949 62.6608 86.2883 62.7808 86.3464 62.9146C86.4108 63.0604 86.4423 63.2156 86.4391 63.3717C86.4415 63.5285 86.4072 63.684 86.3383 63.8289C86.2727 63.966 86.172 64.0884 86.0438 64.1866C85.9039 64.2941 85.7395 64.3749 85.5612 64.4234C85.3489 64.4824 85.1269 64.5104 84.9041 64.5063L84.2443 64.4969ZM84.2443 64.1131H84.9041C85.0475 64.1148 85.1901 64.0964 85.3267 64.0587C85.4394 64.0257 85.5433 63.9733 85.6321 63.9047C85.714 63.8391 85.7775 63.7581 85.8175 63.6678C85.8621 63.5723 85.8844 63.4701 85.8829 63.367C85.8893 63.2676 85.8706 63.1683 85.8282 63.0758C85.7859 62.9834 85.7208 62.9 85.6376 62.8317C85.4293 62.6904 85.1676 62.6219 84.9041 62.6398H84.2443V64.1131Z" fill="currentColor"/>
            <path d="M91.5731 65.8424H91.1423C91.0991 65.8438 91.0566 65.8321 91.0223 65.8092C90.9914 65.7869 90.9671 65.7585 90.9514 65.7263L90.5806 64.8616H88.7185L88.334 65.7263C88.3199 65.7579 88.2964 65.7857 88.2659 65.8069C88.2312 65.8311 88.1877 65.8437 88.1432 65.8424H87.7124L89.3483 62.2628H89.9154L91.5731 65.8424ZM88.8739 64.5134H90.4116L89.7627 63.0564C89.7131 62.9468 89.6721 62.8344 89.64 62.72L89.5773 62.9072C89.5582 62.964 89.5364 63.0162 89.5173 63.0588L88.8739 64.5134Z" fill="currentColor"/>
            <path d="M93.9288 62.2795C93.9614 62.295 93.9894 62.3169 94.0106 62.3434L96.3962 65.0417C96.3962 64.9991 96.3962 64.9564 96.3962 64.9161C96.3962 64.8759 96.3962 64.8356 96.3962 64.7977V62.2629H96.8843V65.8424H96.6116C96.5729 65.8434 96.5345 65.8361 96.4998 65.8211C96.4662 65.804 96.4365 65.7815 96.4126 65.7548L94.0297 63.0589C94.0323 63.0999 94.0323 63.141 94.0297 63.1821C94.0297 63.2223 94.0297 63.2579 94.0297 63.291V65.8424H93.5416V62.2629H93.8306C93.8644 62.2621 93.8979 62.2677 93.9288 62.2795Z" fill="currentColor"/>
            <path d="M100.903 64.4188V65.8402H100.358V64.4188L98.85 62.2631H99.3381C99.3801 62.2609 99.4217 62.2718 99.4553 62.2938C99.485 62.3168 99.5099 62.3441 99.5289 62.3744L100.472 63.765C100.51 63.8242 100.543 63.8787 100.57 63.9308C100.598 63.9829 100.62 64.0327 100.639 64.0824L100.71 63.9284C100.736 63.8721 100.767 63.8175 100.802 63.765L101.732 62.3649C101.751 62.337 101.775 62.3115 101.803 62.2891C101.835 62.2646 101.877 62.2518 101.92 62.2536H102.414L100.903 64.4188Z" fill="currentColor"/>
            <path d="M78.7314 56.2561C78.9686 56.2822 79.2085 56.3035 79.4512 56.3225C83.13 54.8926 86.2422 52.5523 88.3986 49.5942C90.5551 46.636 91.6602 43.1912 91.5758 39.6904L87.5216 36.1678C88.3459 39.8951 87.9603 43.7482 86.4079 47.2959C84.8555 50.8437 82.1975 53.9461 78.7314 56.2561Z" fill="currentColor"/>
            <path d="M77.2837 56.0923L77.3928 56.1112C81.0966 53.8094 83.9205 50.5951 85.4993 46.8839C87.078 43.1727 87.3389 39.1353 86.2483 35.2939L80.4737 30.2767C82.8094 34.4008 83.7495 39.0162 83.1848 43.5862C82.6201 48.1562 80.5737 52.493 77.2837 56.0923Z" fill="currentColor"/>
            <path d="M96.8679 43.8265C95.8868 47.6731 93.5041 51.1423 90.0735 53.7189C89.0716 54.4755 87.9909 55.1496 86.8454 55.7324C89.6389 55.019 92.2065 53.7578 94.3502 52.046C96.494 50.3341 98.1566 48.2174 99.21 45.859L96.8679 43.8265Z" fill="currentColor"/>
            <path d="M95.9491 43.2601L92.6146 40.3629C92.5509 43.666 91.4701 46.894 89.4846 49.7114C87.4991 52.5287 84.6814 54.8327 81.3243 56.3837H81.3406C82.0888 56.3835 82.8362 56.3447 83.5791 56.2676C86.7165 55.155 89.488 53.3849 91.6465 51.1152C93.8049 48.8455 95.2831 46.1469 95.9491 43.2601Z" fill="currentColor"/>
            <path d="M77.7663 28.1609L73.7883 24.7C70.2322 25.8939 67.1738 27.9928 65.0134 30.722C62.8529 33.4512 61.6912 36.6835 61.6801 39.9959V39.9959C61.6934 43.656 63.1113 47.2077 65.7093 50.0888C68.3073 52.9699 71.9371 55.016 76.0241 55.903C79.6725 52.041 81.8086 47.2687 82.1219 42.2798C82.4352 37.2908 80.9094 32.3449 77.7663 28.1609Z" fill="currentColor"/>
            <path d="M105.14 42.7273C105.126 38.3848 103.134 34.2238 99.5997 31.1532C96.0655 28.0826 91.2763 26.352 86.2783 26.3395C83.9688 26.3374 81.6789 26.7077 79.5248 27.4315L103.88 48.5926C104.714 46.7221 105.141 44.7333 105.14 42.7273Z" fill="currentColor"/>

    
        </symbol>

        <symbol id="foster-customer" viewBox="0 0 170 92"> 

            <rect x="0.5" y="0.5" width="169" height="91" rx="3.5" stroke="currentColor"/>
            <path d="M56.1462 37.1028H56.1433C53.7453 37.1028 51.8013 38.8304 51.8013 40.9615V40.964C51.8013 43.0951 53.7453 44.8227 56.1433 44.8227H56.1462C58.5442 44.8227 60.4882 43.0951 60.4882 40.964V40.9615C60.4882 38.8304 58.5442 37.1028 56.1462 37.1028Z" fill="currentColor"/>
            <path d="M88.195 35.8693C88.1882 32.9093 86.8623 30.0722 84.5074 27.979C82.1525 25.8857 78.9604 24.7067 75.6297 24.7V24.7C72.298 24.7053 69.1045 25.8837 66.7484 27.9772C64.3922 30.0706 63.0655 32.9084 63.0587 35.8693V52.1921C63.0587 52.1921 88.1922 49.7044 88.195 35.8718V35.8693Z" fill="currentColor"/>
            <path d="M43 57.5495C43.006 59.6091 43.9291 61.5828 45.5676 63.0394C47.2061 64.496 49.4267 65.317 51.7442 65.3231C54.0612 65.317 56.2814 64.4963 57.9197 63.0403C59.5581 61.5843 60.4816 59.6112 60.4884 57.552V46.1943C60.4884 46.1943 43 47.9266 43 57.5495ZM51.7442 59.5844C51.2913 59.5844 50.8486 59.4651 50.472 59.2415C50.0955 59.0179 49.802 58.7001 49.6287 58.3282C49.4554 57.9564 49.41 57.5472 49.4984 57.1525C49.5867 56.7577 49.8048 56.3951 50.125 56.1105C50.4453 55.8259 50.8533 55.6321 51.2975 55.5536C51.7416 55.4751 52.202 55.5154 52.6205 55.6694C53.0389 55.8234 53.3965 56.0843 53.6481 56.4189C53.8997 56.7535 54.034 57.147 54.034 57.5495C54.0351 57.8173 53.9767 58.0828 53.8622 58.3306C53.7476 58.5783 53.5791 58.8036 53.3664 58.9933C53.1536 59.1831 52.9008 59.3337 52.6224 59.4364C52.3441 59.5392 52.0456 59.5921 51.7442 59.5921V59.5844Z" fill="currentColor"/>
            <path d="M69.4177 58.4637H67.7302V60.2069H66.8513V55.9413H69.6286V56.6532H67.7302V57.7548H69.4177V58.4637ZM73.6423 58.1708C73.6423 58.5907 73.5681 58.9589 73.4196 59.2753C73.2712 59.5917 73.0583 59.8358 72.7809 60.0077C72.5056 60.1796 72.1891 60.2655 71.8317 60.2655C71.4782 60.2655 71.1628 60.1805 70.8854 60.0106C70.6081 59.8407 70.3932 59.5985 70.2409 59.2841C70.0886 58.9677 70.0114 58.6044 70.0095 58.1942V57.9833C70.0095 57.5634 70.0847 57.1942 70.235 56.8759C70.3874 56.5555 70.6013 56.3104 70.8766 56.1405C71.154 55.9686 71.4704 55.8827 71.8259 55.8827C72.1813 55.8827 72.4968 55.9686 72.7722 56.1405C73.0495 56.3104 73.2634 56.5555 73.4138 56.8759C73.5661 57.1942 73.6423 57.5624 73.6423 57.9803V58.1708ZM72.7516 57.9774C72.7516 57.5302 72.6716 57.1903 72.5114 56.9579C72.3513 56.7255 72.1227 56.6093 71.8259 56.6093C71.5309 56.6093 71.3034 56.7245 71.1432 56.955C70.9831 57.1835 70.902 57.5194 70.9001 57.9628V58.1708C70.9001 58.6063 70.9802 58.9442 71.1403 59.1844C71.3005 59.4247 71.5309 59.5448 71.8317 59.5448C72.1266 59.5448 72.3532 59.4296 72.5114 59.1991C72.6696 58.9667 72.7497 58.6288 72.7516 58.1854V57.9774ZM76.4929 59.0878C76.4929 58.9218 76.4343 58.7948 76.3171 58.7069C76.1999 58.6171 75.989 58.5233 75.6843 58.4257C75.3796 58.326 75.1384 58.2284 74.9606 58.1327C74.4763 57.871 74.2341 57.5184 74.2341 57.0751C74.2341 56.8446 74.2985 56.6395 74.4274 56.4598C74.5583 56.2782 74.7448 56.1366 74.987 56.035C75.2311 55.9335 75.5046 55.8827 75.8073 55.8827C76.112 55.8827 76.3835 55.9384 76.6218 56.0497C76.86 56.1591 77.0446 56.3143 77.1755 56.5155C77.3083 56.7167 77.3747 56.9452 77.3747 57.201H76.4958C76.4958 57.0057 76.4343 56.8544 76.3112 56.7469C76.1882 56.6376 76.0153 56.5829 75.7927 56.5829C75.5778 56.5829 75.4108 56.6288 75.2917 56.7206C75.1725 56.8104 75.113 56.9296 75.113 57.078C75.113 57.2167 75.1823 57.3329 75.321 57.4266C75.4616 57.5204 75.6677 57.6083 75.9391 57.6903C76.4391 57.8407 76.8034 58.0272 77.0319 58.2499C77.2604 58.4725 77.3747 58.7499 77.3747 59.0819C77.3747 59.451 77.235 59.7411 76.9557 59.952C76.6765 60.161 76.3005 60.2655 75.8278 60.2655C75.4997 60.2655 75.2009 60.2059 74.9313 60.0868C74.6618 59.9657 74.4557 59.8007 74.3132 59.5917C74.1725 59.3827 74.1022 59.1405 74.1022 58.8651H74.9841C74.9841 59.3358 75.2653 59.5712 75.8278 59.5712C76.0368 59.5712 76.1999 59.5292 76.3171 59.4452C76.4343 59.3593 76.4929 59.2401 76.4929 59.0878ZM81.1833 56.6532H79.8766V60.2069H78.9977V56.6532H77.7087V55.9413H81.1833V56.6532ZM84.2536 58.3583H82.5661V59.5009H84.5466V60.2069H81.6872V55.9413H84.5407V56.6532H82.5661V57.6698H84.2536V58.3583ZM86.6413 58.6454H85.9411V60.2069H85.0622V55.9413H86.6472C87.1511 55.9413 87.5397 56.0536 87.8132 56.2782C88.0866 56.5028 88.2233 56.8202 88.2233 57.2303C88.2233 57.5214 88.1599 57.7645 88.0329 57.9598C87.9079 58.1532 87.7175 58.3075 87.4616 58.4227L88.3845 60.1659V60.2069H87.4411L86.6413 58.6454ZM85.9411 57.9335H86.6501C86.8708 57.9335 87.0417 57.8778 87.1628 57.7665C87.2839 57.6532 87.3444 57.4979 87.3444 57.3007C87.3444 57.0995 87.2868 56.9413 87.1716 56.826C87.0583 56.7108 86.8835 56.6532 86.6472 56.6532H85.9411V57.9335ZM91.2673 58.704V60.2069H90.3884V55.9413H92.0524C92.3727 55.9413 92.654 55.9999 92.8962 56.1171C93.1403 56.2343 93.3278 56.4012 93.4587 56.618C93.5895 56.8329 93.655 57.078 93.655 57.3534C93.655 57.7714 93.5114 58.1014 93.2243 58.3436C92.9391 58.5839 92.5436 58.704 92.0378 58.704H91.2673ZM91.2673 57.9921H92.0524C92.2849 57.9921 92.4616 57.9374 92.5827 57.828C92.7057 57.7186 92.7673 57.5624 92.7673 57.3593C92.7673 57.1503 92.7057 56.9813 92.5827 56.8524C92.4597 56.7235 92.2897 56.6571 92.0729 56.6532H91.2673V57.9921ZM96.8278 58.3583H95.1403V59.5009H97.1208V60.2069H94.2614V55.9413H97.1149V56.6532H95.1403V57.6698H96.8278V58.3583ZM100.906 56.6532H99.5993V60.2069H98.7204V56.6532H97.4313V55.9413H100.906V56.6532ZM103.976 58.3583H102.289V59.5009H104.269V60.2069H101.41V55.9413H104.263V56.6532H102.289V57.6698H103.976V58.3583ZM106.364 58.6454H105.664V60.2069H104.785V55.9413H106.37C106.874 55.9413 107.262 56.0536 107.536 56.2782C107.809 56.5028 107.946 56.8202 107.946 57.2303C107.946 57.5214 107.883 57.7645 107.756 57.9598C107.631 58.1532 107.44 58.3075 107.184 58.4227L108.107 60.1659V60.2069H107.164L106.364 58.6454ZM105.664 57.9335H106.373C106.593 57.9335 106.764 57.8778 106.885 57.7665C107.007 57.6532 107.067 57.4979 107.067 57.3007C107.067 57.0995 107.009 56.9413 106.894 56.826C106.781 56.7108 106.606 56.6532 106.37 56.6532H105.664V57.9335ZM110.829 59.0878C110.829 58.9218 110.77 58.7948 110.653 58.7069C110.536 58.6171 110.325 58.5233 110.02 58.4257C109.716 58.326 109.474 58.2284 109.297 58.1327C108.812 57.871 108.57 57.5184 108.57 57.0751C108.57 56.8446 108.634 56.6395 108.763 56.4598C108.894 56.2782 109.081 56.1366 109.323 56.035C109.567 55.9335 109.841 55.8827 110.143 55.8827C110.448 55.8827 110.719 55.9384 110.958 56.0497C111.196 56.1591 111.381 56.3143 111.511 56.5155C111.644 56.7167 111.711 56.9452 111.711 57.201H110.832C110.832 57.0057 110.77 56.8544 110.647 56.7469C110.524 56.6376 110.351 56.5829 110.129 56.5829C109.914 56.5829 109.747 56.6288 109.628 56.7206C109.508 56.8104 109.449 56.9296 109.449 57.078C109.449 57.2167 109.518 57.3329 109.657 57.4266C109.798 57.5204 110.004 57.6083 110.275 57.6903C110.775 57.8407 111.139 58.0272 111.368 58.2499C111.596 58.4725 111.711 58.7499 111.711 59.0819C111.711 59.451 111.571 59.7411 111.292 59.952C111.012 60.161 110.636 60.2655 110.164 60.2655C109.836 60.2655 109.537 60.2059 109.267 60.0868C108.998 59.9657 108.792 59.8007 108.649 59.5917C108.508 59.3827 108.438 59.1405 108.438 58.8651H109.32C109.32 59.3358 109.601 59.5712 110.164 59.5712C110.373 59.5712 110.536 59.5292 110.653 59.4452C110.77 59.3593 110.829 59.2401 110.829 59.0878Z" fill="currentColor"/>   
    
        </symbol>

        <symbol id="brand-customer" viewBox="0 0 170 92"> 

            <rect x="0.5" y="0.5" width="169" height="91" rx="3.5" stroke="currentColor"/>
            <path d="M58.7569 60.7352C59.0006 61.0114 59.1304 61.3572 59.1236 61.7122C59.136 61.9437 59.0914 62.1749 58.993 62.3885C58.8947 62.6021 58.7451 62.7927 58.5554 62.9463C58.082 63.2736 57.4956 63.4336 56.9037 63.3969H54V57.2055H56.8442C57.4057 57.1713 57.9626 57.3167 58.42 57.6168C58.6036 57.7576 58.7491 57.9355 58.8448 58.1365C58.9406 58.3376 58.984 58.5562 58.9716 58.7753C58.9883 59.1168 58.8712 59.4526 58.6413 59.722C58.4206 59.968 58.1156 60.1385 57.7758 60.2059C58.161 60.2703 58.5087 60.4579 58.7569 60.7352ZM55.3511 59.8006H56.5667C56.843 59.8193 57.1174 59.7463 57.3397 59.5949C57.431 59.5192 57.502 59.4252 57.5473 59.3203C57.5925 59.2154 57.6108 59.1024 57.6007 58.99C57.6093 58.878 57.5906 58.7657 57.5461 58.661C57.5015 58.5564 57.4322 58.4622 57.343 58.3851C57.1141 58.2294 56.8312 58.1553 56.5469 58.1764H55.3511V59.8006ZM57.4587 62.175C57.5562 62.0974 57.6329 62.0003 57.6828 61.8912C57.7326 61.7821 57.7543 61.6639 57.7461 61.5458C57.7535 61.4264 57.7309 61.307 57.6799 61.1969C57.6289 61.0868 57.551 60.9888 57.4521 60.9107C57.2142 60.7492 56.9217 60.6699 56.6262 60.6868H55.3511V62.3897H56.6427C56.9334 62.4051 57.2212 62.3293 57.4587 62.175Z" fill="currentColor"/>
            <path d="M64.5709 63.3969L62.9886 60.9772H62.394V63.3969H61.033V57.2055H63.6096C64.2591 57.164 64.9012 57.3524 65.4034 57.7318C65.7635 58.0678 65.9808 58.5106 66.0159 58.9803C66.051 59.45 65.9018 59.9158 65.595 60.2937C65.2771 60.6271 64.8428 60.8494 64.3661 60.9228L66.0508 63.3969H64.5709ZM62.394 60.1333H63.5072C64.2802 60.1333 64.6667 59.8208 64.6667 59.1957C64.6746 59.0681 64.6534 58.9403 64.6045 58.8205C64.5556 58.7008 64.48 58.5916 64.3826 58.5C64.1383 58.314 63.8237 58.2238 63.5072 58.249H62.3807L62.394 60.1333Z" fill="currentColor"/>
            <path d="M72.0102 62.1506H69.2981L68.8191 63.3968H67.392L69.8828 57.2749H71.4255L73.9063 63.3968H72.4793L72.0102 62.1506ZM71.6468 61.213L70.6558 58.5997L69.6648 61.213H71.6468Z" fill="currentColor"/>
            <path d="M81.3224 63.3969H79.9713L76.9421 59.1866V63.3969H75.5943V57.2054H76.9421L79.9713 61.44V57.2054H81.3224V63.3969Z" fill="currentColor"/>
            <path d="M89.0326 61.9149C88.7532 62.3823 88.3276 62.7626 87.8103 63.0068C87.2222 63.2788 86.5695 63.4128 85.9109 63.397H83.506V57.2055H85.9109C86.5684 57.1898 87.2202 57.3206 87.8103 57.5866C88.3275 57.8253 88.7536 58.2017 89.0326 58.6664C89.3107 59.17 89.4556 59.7263 89.4556 60.2906C89.4556 60.8549 89.3107 61.4113 89.0326 61.9149ZM87.4866 61.7667C87.8722 61.3554 88.0842 60.8312 88.0842 60.2891C88.0842 59.7471 87.8722 59.2229 87.4866 58.8116C87.0205 58.439 86.4127 58.2499 85.7952 58.2853H84.8571V62.293H85.7952C86.4127 62.3283 87.0205 62.1392 87.4866 61.7667Z" fill="currentColor"/>
            <path d="M72.8558 22.7667C72.8558 22.7667 90.2945 28.7949 89.9245 37.518V52.2722C89.9245 52.2722 72.4991 46.2411 72.8624 37.518L72.8558 22.7667Z" fill="currentColor"/>
            <path d="M105.46 48.8181C108.754 46.7428 112.563 45.4574 116.54 45.0796V40.4609C111.958 42.0779 108.071 45.0098 105.46 48.8181Z" fill="currentColor"/>
            <path d="M103.482 50.2095C106.177 45.2396 110.85 41.4046 116.54 39.4932V26.1847C116.54 26.1847 91.705 34.7717 92.2303 47.1939V68.2001C92.2303 68.2001 93.3369 67.816 95.0778 67.0961C95.0778 66.4247 95.0778 65.7472 95.1571 65.0666C95.6711 59.2996 98.6654 53.9556 103.482 50.2095Z" fill="currentColor"/>
            <path d="M101.12 58.0131C101.25 56.5563 101.541 55.1152 101.989 53.712C98.9896 56.9471 97.1734 60.9614 96.7956 65.1906C96.7592 65.5899 96.7394 65.9891 96.7295 66.4005C98.14 65.7804 99.7818 65.0061 101.506 64.0957C101.066 62.0948 100.936 60.0472 101.12 58.0131Z" fill="currentColor"/>
            <path d="M102.107 58.0887C101.942 59.929 102.045 61.7813 102.415 63.5966C109.2 59.8793 116.824 54.1355 116.53 47.1939V46.589C111.682 47.0856 107.147 49.026 103.62 52.112C102.795 54.0244 102.285 56.0387 102.107 58.0887Z" fill="currentColor"/>

        </symbol>

        <symbol id="last-customer" viewBox="0 0 170 92"> 

            <rect x="0.5" y="0.5" width="169" height="91" rx="3.5" stroke="currentColor"/>
            <path d="M85.425 43.4082C84.9819 42.8184 84.7699 42.1213 84.8203 41.4196V38.5364C84.8203 37.6526 85.0207 36.9809 85.4216 36.5214C85.8224 36.0619 86.511 35.8331 87.4871 35.8351C88.4044 35.8351 89.0555 36.0306 89.4405 36.4217C89.8605 36.9207 90.0648 37.5309 90.018 38.1463V38.8239H88.3772V38.1375C88.383 37.9129 88.3671 37.6882 88.3296 37.4659C88.306 37.3138 88.2234 37.1732 88.0952 37.067C87.9267 36.9525 87.7145 36.897 87.5007 36.9115C87.2759 36.897 87.0529 36.9556 86.8756 37.0758C86.7327 37.1935 86.6374 37.3477 86.6038 37.5157C86.5567 37.7511 86.5351 37.9897 86.5393 38.2285V41.7276C86.5134 42.0652 86.5858 42.403 86.7499 42.7102C86.8315 42.8141 86.9448 42.8965 87.0774 42.9483C87.2099 43.0001 87.3564 43.0192 87.5007 43.0035C87.7109 43.0184 87.9195 42.9615 88.0816 42.8451C88.2153 42.7305 88.3013 42.581 88.3262 42.4198C88.3645 42.1877 88.3816 41.9533 88.3772 41.7188V41.009H90.018V41.6572C90.0641 42.2988 89.8648 42.9356 89.4507 43.4698C89.0736 43.8981 88.4315 44.1122 87.4871 44.1122C86.5427 44.1122 85.8292 43.8834 85.425 43.4082Z" fill="currentColor"/>
            <path d="M92.2569 43.4376C91.8424 42.9888 91.6352 42.3347 91.6352 41.4695V38.4367C91.6352 37.5803 91.8424 36.9321 92.2569 36.4921C92.6713 36.0521 93.3644 35.8331 94.3359 35.8351C95.3007 35.8351 95.9904 36.0541 96.4048 36.4921C96.8193 36.9321 97.0299 37.5803 97.0299 38.4367V41.4695C97.0299 42.3259 96.8193 42.9829 96.398 43.4346C95.9768 43.8863 95.2906 44.1122 94.3359 44.1122C93.3813 44.1122 92.6747 43.8834 92.2569 43.4376ZM95.1003 42.7102C95.2487 42.4291 95.3163 42.1212 95.2974 41.8127V38.0994C95.3164 37.7969 95.2499 37.4949 95.1037 37.2195C95.0205 37.1134 94.9043 37.0296 94.7686 36.9777C94.6328 36.9259 94.4829 36.908 94.3359 36.9262C94.1885 36.9085 94.0383 36.9265 93.9021 36.9783C93.7659 37.0301 93.6491 37.1136 93.5648 37.2195C93.4154 37.4941 93.3477 37.7965 93.3678 38.0994V41.8303C93.3471 42.1389 93.4148 42.4471 93.5648 42.7278C93.6604 42.8224 93.7785 42.8982 93.9109 42.9502C94.0433 43.0021 94.1871 43.029 94.3326 43.029C94.478 43.029 94.6218 43.0021 94.7542 42.9502C94.8866 42.8982 95.0047 42.8224 95.1003 42.7278V42.7102Z" fill="currentColor"/>
            <path d="M99.0035 35.9236H100.77L102.098 41.5192L103.457 35.9236H105.176L105.35 44.0003H104.079L103.943 38.3871L102.632 44.0003H101.613L100.254 38.3665L100.128 44.0003H98.8439L99.0035 35.9236Z" fill="currentColor"/>
            <path d="M107.33 35.9236H110.082C111.667 35.9236 112.46 36.688 112.46 38.217C112.46 39.6814 111.625 40.4126 109.956 40.4106H109.019V44.0003H107.32L107.33 35.9236ZM109.681 39.3754C109.849 39.3938 110.019 39.3805 110.181 39.3364C110.342 39.2924 110.49 39.2186 110.615 39.1203C110.81 38.8475 110.896 38.5271 110.86 38.2082C110.869 37.9618 110.841 37.7154 110.778 37.475C110.754 37.3947 110.712 37.3194 110.653 37.2534C110.595 37.1874 110.522 37.1322 110.439 37.0908C110.203 36.9932 109.942 36.9488 109.681 36.9618H109.022V39.3754H109.681Z" fill="currentColor"/>
            <path d="M114.909 35.9236H116.734L118.606 44.0003H117.022L116.652 42.138H115.025L114.644 44.0003H113.038L114.909 35.9236ZM116.469 41.2025L115.833 37.8123L115.198 41.2025H116.469Z" fill="currentColor"/>
            <path d="M120.117 35.9236H121.306L123.582 40.5309V35.9236H124.992V44.0003H123.861L121.571 39.1906V44.0003H120.114L120.117 35.9236Z" fill="currentColor"/>
            <path d="M128.294 40.9208L126.402 35.9349H127.996L129.151 39.1376L130.234 35.9349H131.794L129.925 40.9208V44.0003H128.294V40.9208Z" fill="currentColor"/>
            <path d="M88.0477 47.5316V47.954H86.6617V51.2359H86.0807V47.954H84.6879V47.5316H88.0477Z" fill="currentColor"/>
            <path d="M92.3927 51.2362H91.9442C91.8987 51.2386 91.8538 51.2261 91.8185 51.201C91.7846 51.1795 91.7587 51.15 91.7438 51.116L91.3429 50.2361H89.4201L89.0192 51.116C89.0078 51.1528 88.9869 51.1868 88.958 51.2157C88.9225 51.2402 88.8778 51.2527 88.8324 51.2509H88.3839L90.0825 47.5468H90.6737L92.3927 51.2362ZM89.5797 49.8607H91.1833L90.5038 48.3533C90.4537 48.2393 90.4117 48.1227 90.3781 48.0043C90.3543 48.0747 90.3339 48.1421 90.3136 48.2008L90.2524 48.3562L89.5797 49.8607Z" fill="currentColor"/>
            <path d="M95.3211 50.8724C95.4275 50.8772 95.5341 50.8772 95.6404 50.8724C95.7323 50.8642 95.8232 50.8495 95.9122 50.8284C95.9954 50.8107 96.0772 50.7882 96.1568 50.7609C96.2316 50.7345 96.3063 50.7022 96.3844 50.67V49.8369H95.705C95.6882 49.8378 95.6714 49.8356 95.6556 49.8305C95.6398 49.8255 95.6254 49.8177 95.6133 49.8076C95.6021 49.7993 95.5933 49.7889 95.5874 49.7772C95.5815 49.7655 95.5787 49.7529 95.5793 49.7401V49.4556H96.8974V50.8753C96.7898 50.9417 96.6762 51.0006 96.5577 51.0513C96.4366 51.1029 96.3104 51.1451 96.1806 51.1774C96.0417 51.2127 95.8996 51.2382 95.7559 51.2537C95.5912 51.2695 95.4257 51.2773 95.26 51.2771C94.967 51.2793 94.6763 51.2325 94.4038 51.1393C94.1495 51.051 93.9184 50.9193 93.7244 50.7521C93.5353 50.5832 93.3864 50.3839 93.2862 50.1655C93.1791 49.9199 93.1261 49.6593 93.1299 49.397C93.1263 49.133 93.1781 48.8706 93.2828 48.6226C93.3805 48.4031 93.5297 48.2033 93.721 48.036C93.9149 47.8693 94.1461 47.7386 94.4005 47.6517C94.6914 47.5572 95.0001 47.5105 95.3109 47.5138C95.4691 47.5137 95.627 47.5245 95.7831 47.5461C95.9212 47.5655 96.0567 47.597 96.1874 47.64C96.3062 47.6785 96.4201 47.7277 96.5271 47.7866C96.6312 47.8445 96.7301 47.9092 96.8227 47.9802L96.6596 48.209C96.6468 48.2299 96.6278 48.2475 96.6045 48.2598C96.5812 48.2722 96.5545 48.279 96.5271 48.2794C96.4895 48.2784 96.453 48.2682 96.4218 48.2501C96.3708 48.2266 96.3165 48.1973 96.2553 48.1621C96.1831 48.123 96.1069 48.0896 96.0277 48.0624C95.9265 48.0273 95.8219 47.9998 95.7152 47.9802C95.5729 47.9576 95.4284 47.9468 95.2837 47.948C95.0596 47.9458 94.8371 47.9807 94.6281 48.0506C94.439 48.1161 94.2686 48.2162 94.1287 48.3439C93.9879 48.4771 93.8803 48.6339 93.8127 48.8045C93.661 49.2056 93.661 49.6381 93.8127 50.0393C93.8871 50.2135 94.0028 50.3724 94.1525 50.5057C94.2918 50.6328 94.4609 50.7328 94.6485 50.799C94.8645 50.8631 95.0934 50.888 95.3211 50.8724Z" fill="currentColor"/>
            <path d="M100.736 50.8136H102.591V51.2359H100.169V47.5316H100.75L100.736 50.8136Z" fill="currentColor"/>
            <path d="M104.521 51.2359H103.94V47.5316H104.521V51.2359Z" fill="currentColor"/>
            <path d="M106.681 47.5492C106.716 47.5662 106.746 47.5892 106.77 47.6167L109.253 50.409C109.25 50.3651 109.25 50.321 109.253 50.277C109.253 50.236 109.253 50.1949 109.253 50.1568V47.517H109.759V51.2362H109.467C109.424 51.2392 109.38 51.2321 109.341 51.2156C109.306 51.1972 109.275 51.1733 109.25 51.1452L106.77 48.3558C106.77 48.3998 106.77 48.4409 106.77 48.482C106.77 48.523 106.77 48.5612 106.77 48.5964V51.2362H106.284V47.5316H106.586C106.619 47.5317 106.651 47.5377 106.681 47.5492Z" fill="currentColor"/>
            <path d="M114.036 47.5316V47.9393H111.978V49.1624H113.646V49.5554H111.978V50.8195H114.036V51.2272H111.38V47.5316H114.036Z" fill="currentColor"/>
            <path d="M53.1617 24.6555L78.9568 30.9788V53.1368L53.1617 46.8164V24.6555ZM51.5073 22.7667V47.8928L80.6079 55.0285V29.9054L51.5073 22.7667Z" fill="currentColor"/>
            <path d="M67.1039 66.6922L38 59.5505V34.4271L67.1039 41.5659V66.6922Z" fill="currentColor"/>
            <path d="M51.9897 24.371L77.4484 30.615L66.6215 39.9649L41.1594 33.7179L51.9897 24.371ZM51.5073 22.7667L38 34.4277L67.1039 41.5662L80.6078 29.9053L51.5073 22.7667Z" fill="currentColor"/>
            <path d="M68.7414 65.2788L80.6078 55.0315L68.7414 52.1193V65.2788Z" fill="currentColor"/>
           
        </symbol>

        <symbol id="phone" viewBox="0 0 10 16"> 
 
            <path d="M8.5 0H1.5C0.672848 0 0 0.672848 0 1.5V14.5C0 15.3272 0.672848 16 1.5 16H8.5C9.32715 16 10 15.3272 10 14.5V1.5C10 0.672848 9.32715 0 8.5 0ZM1.5 1H8.5C8.77588 1 9 1.22412 9 1.5V12H1V1.5C1 1.22412 1.22412 1 1.5 1ZM8.5 15H1.5C1.22412 15 1 14.7759 1 14.5V13H9V14.5C9 14.7759 8.77588 15 8.5 15Z" fill="currentColor"/>
            <path d="M2.35355 13.7389C2.54882 13.9213 2.54882 14.2169 2.35355 14.3992C2.15828 14.5816 1.84172 14.5816 1.64645 14.3992C1.45118 14.2169 1.45118 13.9213 1.64645 13.7389C1.84172 13.5566 2.15828 13.5566 2.35355 13.7389Z" fill="currentColor"/>

        </symbol>

         <symbol id="email" viewBox="0 0 16 12"> 

            <path d="M14.5 0H1.50001C0.672854 0 0 0.672853 0 1.50001V10.5C0 11.3271 0.672854 12 1.50001 12H14.5C15.3271 12 16 11.3271 16 10.5V1.50001C16 0.672853 15.3271 0 14.5 0ZM14.5 0.999994C14.5679 0.999994 14.6325 1.01409 14.6916 1.0387L8 6.83838L1.30833 1.0387C1.36742 1.01412 1.43204 0.999994 1.49998 0.999994H14.5ZM14.5 11H1.50001C1.22414 11 0.999996 10.7759 0.999996 10.5V2.09521L7.67236 7.87792C7.76661 7.95944 7.8833 7.99999 8 7.99999C8.1167 7.99999 8.23339 7.95948 8.32764 7.87792L15 2.09521V10.5C15 10.7759 14.7759 11 14.5 11Z" fill="currentColor"/>

        </symbol>

    </defs>

</svg>